<?xml version="1.0" encoding="UTF-8"?>
<svg id="b" data-name="Layer 2" xmlns="http://www.w3.org/2000/svg" xmlns:xlink="http://www.w3.org/1999/xlink" viewBox="0 0 260.33 263.02">
  <defs>
    <style>
      .m {
        fill: url(#j);
      }

      .n {
        fill: #e6eae8;
      }

      .o {
        fill: url(#h);
      }

      .p {
        fill: url(#i);
      }

      .q {
        fill: url(#l);
      }

      .r {
        fill: #dfe2d8;
      }

      .s {
        fill: url(#f);
      }

      .t {
        fill: url(#g);
      }

      .u {
        fill: #85957c;
      }

      .v {
        fill: url(#e);
      }

      .w {
        fill: #446458;
      }

      .x {
        fill: url(#d);
      }

      .y {
        fill: #2d3a3b;
      }

      .z {
        fill: url(#k);
      }
    </style>
    <linearGradient id="d" x1="216.04" y1="46.24" x2="34.31" y2="227.96" gradientUnits="userSpaceOnUse">
      <stop offset="0" stop-color="#f3f6f1"/>
      <stop offset="1" stop-color="#dfe2d8"/>
    </linearGradient>
    <linearGradient id="e" x1="24.29" y1="145.59" x2="34.98" y2="63.49" gradientUnits="userSpaceOnUse">
      <stop offset=".08" stop-color="#313b40"/>
      <stop offset="1" stop-color="#42725c"/>
    </linearGradient>
    <linearGradient id="f" x1="0" y1="147.88" x2="253.14" y2="147.88" gradientUnits="userSpaceOnUse">
      <stop offset="0" stop-color="#313b40"/>
      <stop offset="1" stop-color="#42725c"/>
    </linearGradient>
    <linearGradient id="g" x1="139.44" y1="182.65" x2="157.99" y2="164.1" gradientUnits="userSpaceOnUse">
      <stop offset="0" stop-color="#7b6c51"/>
      <stop offset="1" stop-color="#8b7e60"/>
    </linearGradient>
    <linearGradient id="h" x1="211.83" y1="31.31" x2="111.1" y2="144.84" gradientUnits="userSpaceOnUse">
      <stop offset="0" stop-color="#a2ad9c"/>
      <stop offset=".26" stop-color="#9ea997"/>
      <stop offset=".55" stop-color="#929e8a"/>
      <stop offset=".84" stop-color="#7e8c75"/>
      <stop offset="1" stop-color="#718066"/>
    </linearGradient>
    <linearGradient id="i" x1="238.28" y1="34.82" x2="252.07" y2="21.03" gradientUnits="userSpaceOnUse">
      <stop offset="0" stop-color="#58866b"/>
      <stop offset="1" stop-color="#59866d"/>
    </linearGradient>
    <linearGradient id="j" x1="97.98" y1="105.53" x2="52.02" y2="221.96" gradientUnits="userSpaceOnUse">
      <stop offset="0" stop-color="#4f8667"/>
      <stop offset="1" stop-color="#325146"/>
    </linearGradient>
    <linearGradient id="k" x1="156.85" y1="193.83" x2="109.5" y2="251.38" xlink:href="#j"/>
    <linearGradient id="l" x1="135.21" y1="218.91" x2="111.19" y2="248.1" xlink:href="#d"/>
  </defs>
  <g id="c" data-name="Layer 1">
    <g>
      <circle class="x" cx="130.16" cy="132.12" r="128.5"/>
      <path class="n" d="M40.42,66.69c-.05,.09-.1,.18-.15,.27,.05-.09,.1-.18,.15-.27,.05-.09,.1-.18,.15-.27-.05,.09-.1,.18-.15,.27Z"/>
      <path class="n" d="M234.9,28.64c-.21,5.14,3.48,9.43,8.32,9.66,5.66,.26,10.91-3.88,11.16-8.81,.29-5.56-4.02-10.66-9.12-10.8-5.73-.16-10.12,4.06-10.36,9.95Z"/>
      <path class="v" d="M37.1,64.34c.93-3.98,3.06-7.44,4.84-11.04-.31-1.47-1.08-2.31-2.08-.65-6.12,10.2-14.56,18.9-19.13,30.12-5.21,12.81-10.08,25.66-10.3,39.76-.04,2.6-.4,5.23-.82,7.75-.9,5.39,1.99,8.07,6.19,9.8,4.13,1.71,5.25,5.71,7.27,8.93,.92,1.47,1.53,2.54,3.2,2.3,3.09-.46,5.03,1.28,6.55,3.43,1.27,1.8,2.58,2.92,4.87,2.62,1.13-.15,1.86,.1,2.28,.65,.15-4.49,.14-8.85,1.31-12.8-11.99-18.48-17.5-52.74-4.18-80.88Z"/>
      <path class="w" d="M72.53,91.47s.09-.02,.13-.04c0-.01,0-.02,0-.03,0,0-.02,0-.03,0-.03,.02-.07,.05-.1,.07Z"/>
      <path class="s" d="M249.79,171.04c-2.76-.79-5-.34-6.2,2.89-.88,2.37-2.15,4.67-3.87,6.63,.05,.48,.29,1.05,.12,1.42-4.78,10.12-10.68,19.54-18.07,27.98-9.84,11.26-21.53,20.22-34.35,27.8-16.03,8.46-32.95,13.72-51.5,14.52,.07-.08,.14-.14,.21-.22-16.54,2.83-33.05-3.16-48.75-7.88-.73,.43-1.59,.38-2.86-.35-3.11-1.8-6.38-3.37-9.72-4.7-.6-.24-1.05-.48-1.37-.71-.49-.36-.67-.73-.62-1.12-.61-.5-1.54-.77-2.31-1.09-4.73-1.19-6.31-3.4-6.02-8.18,.05-.86,.03-1.72,.04-2.58-2.73,.3-3.99-1.85-5.39-3.48-9.14-10.67-13.72-23.48-16.3-36.96-1.56-8.12-3.29-16.34-2.45-24.76,.2-1.99-.52-3.19-2.71-2.9-2.29,.3-3.6-.82-4.87-2.62-1.52-2.15-3.47-3.89-6.55-3.43-1.66,.25-2.28-.83-3.2-2.3-2.02-3.22-3.14-7.23-7.27-8.93-4.2-1.74-7.09-4.41-6.19-9.8,.42-2.52,.78-5.16,.82-7.75,.22-14.1,5.09-26.94,10.3-39.76,4.57-11.23,13.01-19.92,19.13-30.12,1-1.66,1.77-.82,2.08,.65,2.59-4.2,5.86-7.88,9.04-11.62,2.45-2.89,2.56-5.71,.07-7.74-2.69-2.19-5.14-1.09-7.23,1.11-3.86,4.07-7.83,8.06-11.46,12.33C4.39,80.3-6.33,118.18,3.67,160.23c10.64,44.77,37.24,77.35,80.95,94.04,38.24,14.6,75.32,10.56,110.87-9.31-.53-.34-1.08-.65-1.63-.94,.55,.3,1.1,.6,1.63,.94,10.72-5.35,19.64-13,27.72-21.7,4.05-4.36,8.32-8.58,11.83-13.35,3.88-5.26,7.24-10.96,10.42-16.69,2.75-4.98,5.05-10.22,7.3-15.45,1.15-2.68-.4-5.99-2.97-6.72Z"/>
      <path class="t" d="M161.59,176.93c-3.15,7.23-9.25,11.31-15.42,10.3-9.19-1.51-13.8-12.58-8.43-20.28,.63-.9,1.63-1.57,1.7-2.81,.89-.4,1.81-.75,2.67-1.2,7.54-3.88,15.25-.89,18.34,7.14,.19,.27,.38,.54,.56,.81,.06,.23,.14,.45,.24,.66,.14,1.49,.29,2.98,.43,4.48-.03,.3-.06,.61-.09,.91Z"/>
      <path class="o" d="M176.78,113.82c18.82-10.33,36.41-22.46,53.09-35.95,2.67-2.16,5.07-4.97,9.1-4.29,1.02,.7,2.13,1.3,3.04,2.13,3.57,3.23,3.65,6.56,.25,9.91-8.74,8.58-18.51,15.89-28.59,22.76-11.31,7.71-23.06,14.73-35.18,21.14-7.76,4.11-15.8,7.54-23.92,10.83-6.42,2.6-12.82,5.24-19.25,7.83-2.37,.95-4.78,1.35-7.2,.12,0,0,.01,.02,.01,.02-3.82-4.97-3.05-8.55,2.62-11.32,4.75-2.32,9.57-4.51,14.39-6.67,10.89-4.86,21.41-10.4,31.64-16.52Zm38.21-72.55c-4.26-.2-8.06,1.52-11.81,3.1-20.64,8.68-41.67,16.3-62.82,23.62-7.71,2.67-15.14,6.4-23.45,7.15-1.29,1.38-2.94,2.06-4.7,2.69-4.37,1.57-6.1,4.86-4.99,9.02,.93,3.47,3.22,4.85,7.97,3.82,12.02-2.59,23.68-6.49,35.27-10.56,1.28-.45,2.58-.84,3.87-1.26,5.56-2.05,11.09-4.17,16.67-6.14,15.35-5.42,30.17-12.14,45.1-18.59,2.98-1.29,5.08-3.17,4.46-6.82-.85-2.93-3.03-4.65-5.57-6.02Zm-17.99-23.85c-3.46-2.21-7.02-4.34-10.77-5.97C165.06,2.23,143.06-1.76,119.94,.72c-17.05,1.83-33.19,6.51-48.45,14.21-4.09,2.06-8.38,4.01-11.7,7.29-1.51,1.49-3.29,3.4-1.42,5.85,1.77,2.32,4.04,3.22,6.85,1.92,.9-.42,1.77-.91,2.63-1.41,6.35-3.72,12.9-7.03,19.78-9.65,16.15-7.13,33.16-9.68,50.67-9.12,7.7,.25,15.3,1.64,22.79,3.43,10.7,2.56,20.77,6.72,30.35,12.13,2.11,1.19,4.3,2.72,6.96,1.26,3.07-4.07,2.81-6.51-1.42-9.21ZM56.17,68.59c12.84-11.28,27.72-19.14,43.35-25.74,.66-.28,1.47-.24,2.2-.35,5.12-2.26,10.5-3.72,15.9-5.09,12.65-3.22,25.56-3.41,38.5-2.99,3.07,.1,5.13-1.06,5.61-4.17,.41-2.63-1.91-5.31-4.97-5.42-8.58-.3-17.2-.7-25.74,.43-13.6,1.8-26.72,5.68-39.68,10.07-4.12,1.98-8.24,3.95-12.36,5.94-14.33,6.91-26.97,16.15-37.97,27.64-.82,2.43-1.37,4.83,1.26,6.58,2.62,1.76,4.9,.87,7-1.02,1.12-1.01,2.26-1.91,3.88-1.8,.17-1.97,1.76-3,3.01-4.1Zm203.47,48.72c-.23-2.9-2.21-4.98-5.26-5.6-3.05-.62-4.6,1.31-5.82,3.64-.52,.98-.9,2.04-1.32,3.07-3.54,8.65-7.38,17.15-11.94,25.33-5.51,9.88-12.4,18.69-19.93,27.06-.66,.73-1.07,1.7-1.76,2.38-5.3,5.17-10.65,10.3-15.99,15.45l-.03,.04c.08,1.74-.72,2.43-2.43,2.07-2.1,1.5-4.19,2.99-6.29,4.49-5.4,4.69-11.92,7.69-17.79,11.67-2.73,1.85-4.44,4.15-2.71,7.53,1.45,2.82,4.52,3.49,8.12,1.24,9.25-5.78,18.94-10.96,26.92-18.58,.86,.07,1.32-.58,1.89-1.04,11.12-9.01,20.39-19.73,28.71-31.31,.14-.23,.28-.46,.42-.69,0,0-.02,.02-.02,.02,5.9-8.65,11.23-17.64,15.64-27.19,.52,6.76-.88,13.23-1.73,19.74-.41,3.14,.37,5.64,3.54,6.44,3.42,.87,5.05-1.52,5.8-4.39,1-3.83,1.39-7.78,1.9-11.72,.7-5.44,.12-10.86,.61-16.24,.41-4.53-.2-8.95-.55-13.39Z"/>
      <path class="p" d="M234.9,28.64c.24-5.89,4.63-10.11,10.36-9.95,5.1,.14,9.41,5.24,9.12,10.8-.26,4.93-5.5,9.07-11.16,8.81-4.84-.22-8.53-4.51-8.32-9.66Z"/>
      <path class="u" d="M197.6,188.67c.08,1.74-.72,2.43-2.43,2.07,.55-.99,1.33-1.72,2.43-2.07Z"/>
      <path class="r" d="M40.43,66.69c-.05,.09-.1,.18-.15,.27,.05-.09,.1-.18,.15-.27h0Z"/>
      <path class="r" d="M40.42,66.69l.15-.27c-.05,.09-.1,.18-.15,.27h0Z"/>
      <path class="r" d="M161.01,170.89c-.19-.27-.38-.54-.56-.81,.19,.27,.38,.54,.56,.81Z"/>
      <path class="m" d="M113.02,153.58c-.03-.47-.06-.94-.1-1.41-.93-9.15-2.13-18.25-5.21-26.98h0c-.77-2.93-1.47-6.06-2.65-8.68-4.44-9.92-9.55-19.54-16.53-28.02-9.16-11.12-5.7-12.19-16.7,.61-.47,.53-.95,1.07-1.42,1.6,.11,2.15-.37,3.82-3.03,3.69-8.87,10.78-21.56,29.24-25.62,51.59-.17-.25-.33-.51-.49-.76-1.18,3.95-1.16,8.3-1.31,12.8,.4,.51,.52,1.28,.42,2.25-.84,8.41,.89,16.64,2.45,24.76,2.59,13.48,7.17,26.29,16.3,36.96,1.4,1.63,2.66,3.78,5.39,3.48,.72-11.8,.74-23.63,2.1-35.41,1.49-12.85,4.74-25.25,8.35-37.6,.72-2.47,2.32-1.12,3.62-.96,1.62,.2,2.23,.89,1.76,2.76-2.38,9.4-5.08,18.73-6.57,28.33-.44,2.82-.67,5.66-1,8.49-2.11,15.05-1.93,30.18-1.53,45.33-.27-.06-.51-.12-.76-.18,.78,.32,1.71,.58,2.31,1.09,.07-.57,.64-1.2,1.51-1.95,6.41-5.54,12.33-11.56,17.55-18.26,.45-.58,.77-1.26,1.15-1.89,0,0,0,0,0,0h0s0,0,0,0l-.08-.04c-.21-1.44,.23-2.36,1.85-2.36,7.82-10.85,12.72-22.91,15.54-35.97,1.5-6.96,2.01-13.97,2.7-21-.01-.75-.02-1.51-.04-2.26Zm-37.61-59.87s.02-.07,.03-.1c-.01,.03-.02,.06-.03,.1Zm.11-.36s.01-.08,.02-.13c0,.04,0,.08-.02,.13Zm.05-.32s0-.08,0-.12c0,.04,0,.08,0,.12Zm-.26-.84s.05,.06,.07,.09c-.02-.03-.05-.06-.07-.09Zm.13,.2s.04,.07,.05,.1c-.01-.04-.03-.07-.05-.1Zm.09,.24s.02,.07,.03,.11c0-.04-.02-.07-.03-.11Zm-.3-.55s-.06-.05-.1-.08c.03,.03,.07,.05,.1,.08Zm-3.03-2.69s-.04-.06-.07-.09c.03,.03,.05,.06,.07,.09Zm.34,2.06c-.21,.15-.42,.31-.63,.46-.16-.71,.34-.44,.63-.46,.03-.02,.07-.05,.1-.07,0,0,.02,0,.03,0,0-.1,0-.2,0-.3,0,.1,0,.2,0,.3h0s-.02,0-.03,0l.03,.03h0s-.08,.04-.13,.04Zm-.2-1.89s.04,.08,.06,.11c-.02-.04-.04-.08-.06-.11Zm.15,.27s.03,.08,.04,.13c-.01-.04-.02-.09-.04-.13Zm.09,.29s.02,.09,.02,.14c0-.05-.01-.09-.02-.14Zm.05,.31s0,.1,.01,.14c0-.05,0-.1-.01-.14Zm.03,.32c0,.05,0,.11,0,.16,0-.05,0-.11,0-.16Zm2.38,1.17s-.08-.05-.12-.07c.04,.02,.08,.05,.12,.07Zm-.23-.14s-.1-.04-.14-.06c.05,.02,.1,.04,.14,.06Zm-.26-.11c-.06-.02-.12-.04-.18-.06,.06,.02,.12,.04,.18,.06Zm-.28-.09c-.07-.02-.14-.03-.21-.05,.07,.02,.14,.03,.21,.05Zm-.3-.07c-.08-.02-.16-.03-.23-.04,.08,.01,.16,.02,.23,.04Zm-.32-.05c-.09-.01-.18-.02-.27-.03,.09,0,.18,.02,.27,.03Zm-.33-.04c-.1,0-.2-.02-.3-.02,.1,0,.2,.01,.3,.02Zm-.33-.03c-.11,0-.22-.01-.33-.01,.11,0,.22,0,.33,.01Zm16.41,122.51c.14,.04,.29,.1,.43,.19-.15-.08-.29-.15-.43-.19Zm1.12,.63c.16,.11,.32,.22,.49,.32-.17-.1-.33-.21-.49-.32Zm14.58-90.8c-.22-.15-.44-.29-.69-.4,.25,.1,.47,.24,.69,.4,.32,.23,.62,.5,.92,.74-.3-.24-.6-.51-.92-.74Z"/>
      <path class="u" d="M67.41,93.7c1-1,2-1.99,3.01-2.99,.11,2.15-.37,3.82-3.03,3.69,0-.23,0-.47,.02-.7Z"/>
      <path class="n" d="M113.02,153.58c.75,.13,1.49,.29,1.38,1.29-.09,.76-.75,.85-1.34,.97-.01-.75-.02-1.51-.04-2.26Z"/>
      <path class="y" d="M94.81,212.81c-.62,.79-1.24,1.57-1.85,2.36-.21-1.44,.23-2.36,1.85-2.36Z"/>
      <path class="u" d="M72.63,91.4c-.24,.18-.49,.36-.73,.54-.18-.82,.52-.32,.76-.5,0,0-.03-.03-.03-.03Z"/>
      <path class="z" d="M159.5,197.7c-8.15,.44-16.1,1.98-23.76,4.72-14.35,5.13-27.07,12.66-36.25,25.26-3.99,4.61-7.31,9.72-10.58,14.84-.5,.79-.97,1.36-1.52,1.67,3.92,1.18,7.9,2.44,11.91,3.62,12.04,3.54,24.43,6.38,36.83,4.26,1.66-1.8,4.2-2.39,4.82-4.8,6.88-4.5,10.57-11.68,13.79-18.61,4.12-8.89,5.48-18.8,7.09-28.51,.35-2.09-.4-2.55-2.33-2.45Z"/>
      <path class="n" d="M161.59,176.93c.03-.3,.06-.61,.09-.91,.61,.37,.38,.65-.09,.91Z"/>
      <path class="n" d="M234.02,164.73c.14-.23,.28-.46,.42-.69-.14,.23-.28,.46-.42,.69Z"/>
      <path class="n" d="M90.8,19.8l-.08,.24c-.09-.03-.2-.05-.26-.11-.03-.02,.05-.15,.08-.23,.09,.03,.18,.07,.27,.1Z"/>
      <path class="q" d="M134.46,218.62s2,1,1,2-25,30-25,30h-3l27-32Z"/>
    </g>
  </g>
</svg>